<svg
	xmlns="http://www.w3.org/2000/svg"
    width="695dp"
    height="667dp"
	viewbox="0 0 695 667"
	>
  <path
      d="M257.756,394.551C156.014,401.611 88.739,253.357 192.973,238.822C192.973,238.822 201.694,237.161 210,238.822C216.229,240.068 224.534,245.467 228.272,234.67C232.424,221.796 217.475,203.524 202.109,203.939C179.684,204.77 158.921,225.534 149.785,203.524C147.293,197.71 151.861,187.744 164.319,184.421C176.778,181.514 175.116,172.794 173.455,168.226C172.625,165.734 169.718,164.073 165.98,164.073C163.489,164.073 160.582,166.564 156.429,167.81C123.207,177.777 102.858,149.953 102.028,124.206C100.782,86.001 121.546,46.134 158.505,29.939C182.176,19.142 178.023,7.099 174.286,3.361C160.997,-9.928 106.181,19.972 93.307,27.447C-94.813,142.063 23.956,419.467 250.281,417.806C266.892,418.637 276.444,393.305 257.756,394.551Z"
      fill="#0000ff"
      fill-rule="evenOdd"/>
  <path
      d="M361.16,473.868C308.005,477.606 321.293,489.234 321.293,489.234C321.293,489.234 349.947,488.403 355.346,503.768C360.745,519.549 309.25,523.702 261.909,523.702C214.568,523.702 163.073,545.296 156.844,563.983C150.615,582.671 166.811,596.375 195.465,596.375C223.704,595.96 244.052,589.73 244.052,589.73L240.73,595.544C240.73,595.544 259.002,622.537 308.005,636.657C357.007,650.776 423.451,644.547 459.996,612.155C459.996,612.155 472.869,602.604 481.175,602.189C489.48,601.773 484.497,620.046 460.411,635.826C436.325,651.606 364.897,687.736 285.995,651.191C285.995,651.191 230.763,628.351 197.541,627.521C149.785,626.275 133.174,605.511 122.792,561.907C120.3,550.695 142.725,529.931 166.811,527.024C190.897,524.117 270.215,501.692 271.876,477.606C271.876,477.606 265.231,469.716 266.892,461.826C268.553,453.935 355.346,428.603 361.16,414.484C366.974,400.365 324.2,415.73 302.606,374.202C281.012,332.675 286.41,318.971 296.377,313.987C306.344,308.589 305.513,332.259 334.167,352.608C362.821,372.956 366.143,365.897 357.422,341.811C348.702,318.14 366.559,311.08 382.754,334.751C398.95,358.837 413.9,375.863 448.368,360.913C482.836,345.964 513.566,321.878 517.719,302.775C520.211,291.978 514.397,286.164 508.998,279.104C492.802,258.756 504.43,233.424 525.609,243.39C552.187,255.849 565.891,253.772 571.289,244.636C586.655,217.643 563.815,177.362 535.576,152.86C499.862,122.545 494.879,116.731 496.955,110.918C498.616,105.104 507.752,103.858 518.549,105.519C552.187,110.918 569.628,156.183 587.9,150.784C591.223,149.953 594.13,140.817 593.299,125.867C585.409,38.66 509.829,37.414 511.905,13.328C512.736,4.192 529.762,0.869 552.602,6.268C643.132,28.693 706.254,143.724 692.135,242.975C671.786,385.415 488.234,465.148 361.16,473.868Z"
      fill="#0000ff"
      fill-rule="evenOdd"/>
  <path
      d="M441.723,516.642C441.723,516.642 459.996,526.193 482.836,497.124C505.676,468.055 579.595,469.716 601.605,475.114C624.029,480.513 617.8,485.081 596.206,501.277C575.027,517.472 554.263,559 511.074,556.924C467.886,554.847 462.902,546.126 454.182,546.126C445.461,546.126 441.308,544.881 441.308,544.881C441.308,544.881 439.232,535.329 441.723,516.642Z"
      fill="#0000ff"
      fill-rule="evenOdd"/>
</svg>